<?xml version="1.0" standalone="no"?>
<!DOCTYPE svg PUBLIC "-//W3C//DTD SVG 20010904//EN"
 "http://www.w3.org/TR/2001/REC-SVG-20010904/DTD/svg10.dtd">
<svg version="1.0" xmlns="http://www.w3.org/2000/svg"
 width="255.000000pt" height="255.000000pt" viewBox="0 0 255.000000 255.000000"
 preserveAspectRatio="xMidYMid meet">
<metadata>
Created by potrace 1.11, written by Peter Selinger 2001-2013
</metadata>
<g transform="translate(0.000000,255.000000) scale(0.100000,-0.100000)"
fill="#000000" stroke="none">
<path d="M1585 2200 c-38 -11 -83 -22 -100 -25 -34 -7 -163 -39 -245 -60 -30
-8 -102 -26 -160 -39 -231 -56 -792 -195 -795 -198 -2 -2 -5 -14 -7 -27 -3
-24 0 -25 182 -62 102 -21 203 -41 225 -44 22 -4 42 -8 45 -10 3 -2 23 -6 44
-9 48 -8 46 -6 52 -48 3 -18 9 -55 14 -83 5 -27 12 -68 15 -90 5 -37 31 -199
41 -255 2 -14 9 -56 14 -95 9 -59 24 -152 64 -390 3 -16 7 -48 11 -70 3 -23 8
-52 10 -65 3 -14 8 -44 11 -68 23 -170 32 -205 55 -223 23 -17 24 -17 31 0 3
10 9 36 12 57 4 21 20 113 36 204 16 91 32 179 35 195 3 17 24 131 46 255 23
124 43 241 46 260 2 19 8 51 13 70 5 19 12 58 16 85 3 28 12 66 18 85 7 19 97
172 200 339 103 167 185 310 182 317 -7 18 -25 17 -111 -6z"/>
<path d="M1825 1853 c-214 -345 -198 -307 -230 -513 -2 -14 -11 -65 -19 -115
-8 -49 -17 -103 -20 -120 -6 -42 -56 -355 -61 -385 -19 -113 -36 -222 -41
-255 -3 -22 -10 -58 -14 -79 -10 -45 -6 -56 18 -56 12 0 42 48 101 163 46 89
114 221 151 292 37 72 109 211 160 310 51 99 129 249 172 334 l80 154 -7 71
c-4 39 -8 85 -10 101 -2 17 -7 59 -11 95 -3 36 -8 73 -10 82 -1 9 -6 48 -9 85
-12 121 -21 153 -45 153 -4 0 -96 -142 -205 -317z"/>
</g>
</svg>
